<?xml version="1.0" standalone="no"?>
<!DOCTYPE svg PUBLIC "-//W3C//DTD SVG 20010904//EN"
 "http://www.w3.org/TR/2001/REC-SVG-20010904/DTD/svg10.dtd">
<svg version="1.0" xmlns="http://www.w3.org/2000/svg"
 width="4330.000000pt" height="3464.000000pt" viewBox="0 0 4330.000000 3464.000000"
 preserveAspectRatio="xMidYMid meet">

<g transform="translate(0.000000,3464.000000) scale(0.100000,-0.100000)"
fill="#000000" stroke="none">
<path d="M9005 31665 c-5 -2 -40 -6 -78 -10 -37 -4 -65 -10 -62 -15 3 -4 -3
-6 -14 -3 -25 6 -192 -39 -306 -83 -115 -44 -251 -117 -247 -133 1 -7 -2 -10
-8 -6 -12 8 -52 -13 -45 -24 2 -5 -3 -8 -12 -7 -10 0 -18 -4 -18 -11 0 -7 -7
-18 -15 -25 -12 -11 -12 -11 -1 5 18 23 6 22 -29 -5 -16 -11 -26 -26 -23 -31
3 -6 1 -7 -5 -3 -15 9 -94 -53 -85 -67 3 -6 1 -7 -4 -4 -20 13 -259 -235 -247
-255 4 -6 3 -8 -4 -4 -13 8 -66 -59 -58 -73 4 -5 2 -12 -4 -16 -6 -4 -7 -11
-4 -17 4 -7 2 -8 -5 -4 -7 5 -9 13 -4 20 4 7 -2 0 -14 -14 -25 -27 -30 -45
-10 -34 7 4 9 3 4 -2 -5 -5 -12 -9 -15 -9 -13 0 -32 -16 -32 -26 0 -6 5 -7 12
-3 7 4 8 3 4 -5 -4 -6 -11 -9 -15 -7 -12 8 -74 -101 -65 -115 4 -8 3 -9 -4 -5
-14 8 -46 -50 -36 -66 4 -6 3 -8 -3 -5 -13 8 -88 -147 -78 -163 5 -8 4 -11 -2
-7 -14 9 -57 -97 -49 -118 3 -9 2 -13 -4 -10 -11 7 -73 -186 -74 -232 -1 -17
-4 -29 -7 -27 -7 4 -13 -19 -34 -141 -29 -168 -45 -311 -51 -463 -7 -161 3
-463 15 -444 3 5 7 -34 8 -86 1 -59 6 -98 12 -100 6 -2 9 -8 5 -13 -24 -39 90
-593 197 -956 22 -76 50 -170 61 -210 12 -42 25 -70 31 -66 6 3 7 1 3 -6 -10
-16 3 -53 16 -45 7 4 8 2 4 -4 -10 -16 35 -153 47 -145 6 3 7 1 3 -6 -9 -15 3
-53 15 -46 5 3 6 0 3 -8 -2 -7 9 -53 27 -101 23 -64 34 -84 41 -74 8 10 9 9 4
-4 -9 -29 76 -244 237 -600 16 -38 34 -68 39 -68 5 0 7 -4 4 -9 -8 -13 93
-223 104 -216 6 3 7 0 5 -7 -7 -19 113 -261 125 -253 5 3 7 0 4 -9 -5 -13 42
-109 153 -318 18 -33 30 -45 42 -41 13 4 13 3 2 -5 -11 -8 -2 -30 44 -116 34
-63 61 -104 67 -100 6 4 8 2 5 -4 -10 -15 3 -43 16 -35 6 3 7 1 3 -6 -5 -7 8
-38 28 -72 20 -33 36 -64 36 -69 0 -5 9 -14 20 -20 11 -6 18 -15 15 -20 -7
-11 49 -113 57 -104 3 3 5 -3 5 -13 -1 -10 4 -17 11 -15 8 1 11 -2 7 -8 -3 -6
37 -86 91 -178 53 -92 105 -183 116 -202 11 -19 32 -55 46 -80 14 -25 35 -54
47 -65 11 -11 14 -15 6 -10 -10 7 -9 -1 6 -25 11 -19 33 -56 48 -83 15 -26 32
-44 37 -40 7 4 4 11 -7 20 -11 7 -14 13 -8 13 7 0 15 -5 18 -10 4 -6 12 -7 18
-3 7 3 4 -3 -6 -14 -17 -20 -17 -23 -2 -52 9 -19 20 -29 27 -25 7 4 8 3 4 -4
-6 -10 119 -242 130 -242 3 0 0 10 -6 23 -11 21 -10 21 4 3 9 -10 13 -23 10
-27 -8 -14 26 -70 38 -63 6 4 8 3 5 -3 -9 -14 81 -175 93 -168 5 3 12 0 16 -6
4 -8 3 -9 -4 -5 -19 11 -14 -6 14 -49 14 -22 23 -32 20 -22 -4 11 -2 16 5 12
6 -4 8 -14 5 -22 -7 -18 54 -124 68 -116 5 3 6 1 3 -4 -9 -15 22 -75 35 -67 6
4 8 2 4 -4 -6 -10 60 -142 71 -142 2 0 1 5 -3 12 -4 7 -3 8 4 4 6 -4 9 -12 6
-19 -6 -17 90 -179 101 -170 4 5 5 2 1 -4 -9 -16 57 -136 69 -126 4 5 5 3 2
-3 -3 -6 10 -41 30 -79 27 -50 38 -64 45 -54 8 11 8 10 4 -4 -7 -21 60 -160
74 -152 5 3 12 0 16 -6 4 -8 3 -9 -4 -5 -15 9 -15 3 -1 -28 7 -14 16 -23 22
-19 6 3 7 1 3 -5 -7 -11 19 -72 30 -72 3 0 2 6 -2 13 -5 8 -2 8 9 -2 18 -15
23 -26 7 -16 -16 10 -12 -10 12 -54 12 -22 25 -38 30 -35 4 3 5 -3 1 -12 -5
-13 -3 -15 7 -9 8 5 11 4 6 -3 -7 -12 80 -195 95 -200 5 -2 14 -13 20 -24 8
-15 8 -19 0 -14 -6 4 14 -46 45 -111 31 -65 58 -124 61 -130 3 -7 10 -10 16
-6 6 3 7 1 3 -5 -4 -6 6 -40 22 -74 16 -35 33 -73 36 -86 4 -12 12 -19 18 -16
6 4 8 2 5 -3 -9 -14 27 -95 37 -86 4 4 4 -1 0 -11 -6 -15 -4 -17 6 -11 8 5 11
4 6 -3 -8 -13 43 -142 56 -142 5 0 6 -4 3 -10 -3 -5 1 -22 9 -37 72 -141 340
-912 361 -1041 4 -26 11 -40 17 -35 6 3 8 1 5 -4 -11 -18 4 -107 15 -91 7 9 8
7 4 -7 -3 -11 -6 -77 -8 -147 -2 -69 -6 -121 -10 -115 -5 8 -8 6 -8 -5 0 -35
-48 -124 -92 -173 -25 -27 -46 -53 -47 -57 0 -5 -2 -7 -3 -6 -7 5 -87 -46 -83
-52 3 -4 -1 -7 -8 -7 -6 1 -37 -6 -67 -16 -61 -18 -241 -47 -235 -36 3 3 -24
9 -60 12 -35 3 -97 18 -137 32 -40 15 -81 27 -90 28 -9 1 -15 3 -13 6 5 4 -50
41 -61 41 -3 0 -2 -5 2 -12 4 -7 3 -8 -5 -4 -6 4 -9 11 -6 16 7 11 -43 42 -57
34 -6 -4 -8 -3 -5 3 9 14 -29 47 -44 37 -7 -4 -10 -3 -6 3 8 13 -67 86 -78 76
-4 -5 -5 -3 -2 3 7 12 -25 47 -36 39 -4 -3 -5 -2 -2 2 3 3 -2 15 -11 25 -12
13 -21 15 -30 7 -9 -7 -14 -6 -20 2 -4 7 -3 9 4 5 6 -3 14 -2 17 4 8 13 -14
42 -26 34 -5 -3 -8 -1 -7 4 5 16 -42 73 -54 66 -7 -4 -8 -3 -4 4 4 6 -17 44
-47 84 -30 40 -59 83 -66 95 -6 13 -17 22 -24 20 -7 -1 -11 4 -9 11 4 19 -59
103 -71 95 -6 -3 -7 -1 -3 5 8 14 -92 164 -104 157 -4 -3 -7 3 -6 13 0 9 -5
16 -12 14 -8 -1 -11 2 -7 7 8 14 -45 92 -58 84 -5 -3 -7 -1 -4 4 7 10 -13 40
-226 346 -85 122 -112 155 -122 147 -9 -8 -15 -8 -20 0 -6 9 1 14 18 11 4 0 7
2 7 6 0 17 -162 238 -171 235 -6 -1 -8 2 -4 8 6 9 -50 100 -61 100 -3 0 -2 -5
2 -12 4 -7 3 -8 -5 -4 -6 4 -9 11 -6 17 9 13 -74 131 -87 123 -7 -4 -8 -3 -4
4 7 12 -83 154 -94 147 -4 -2 -7 1 -7 8 0 19 -34 68 -43 62 -4 -3 -7 3 -6 12
0 10 -6 18 -14 18 -8 1 -14 6 -12 13 3 17 -88 148 -100 144 -5 -1 -7 2 -4 7 4
5 -14 39 -39 75 -35 49 -50 64 -66 61 -11 -2 -17 0 -14 6 4 5 11 7 16 4 15
-10 10 4 -17 45 -15 22 -31 37 -37 33 -6 -3 -7 -1 -3 5 9 15 -53 104 -67 95
-6 -3 -7 -1 -3 5 9 15 -23 64 -37 55 -6 -3 -7 -1 -3 5 7 12 -49 97 -64 97 -5
0 -12 4 -17 9 -5 5 -3 6 5 2 16 -10 15 0 -4 29 -9 14 -21 22 -27 18 -5 -3 -7
-1 -4 4 4 6 -2 22 -14 34 -11 13 -17 17 -13 9 4 -9 3 -12 -2 -7 -5 5 -9 15 -9
22 0 20 -115 176 -125 170 -4 -2 -14 3 -21 13 -13 15 -12 16 4 3 10 -8 17 -9
17 -3 0 6 -10 18 -22 26 -12 9 -19 16 -15 16 5 0 -4 16 -19 35 -14 19 -31 32
-38 28 -6 -3 -8 -3 -4 2 10 11 -11 47 -23 40 -5 -4 -8 -1 -7 7 2 7 -2 12 -9
11 -6 -1 -17 5 -25 15 -12 15 -11 16 5 3 9 -7 17 -9 17 -4 0 16 -36 44 -45 36
-4 -5 -5 -2 -1 4 4 8 -10 31 -35 58 -36 39 -44 43 -58 33 -14 -12 -15 -11 -2
5 13 16 9 23 -39 72 -29 30 -58 51 -63 48 -6 -3 -7 -2 -4 4 8 13 -47 66 -58
56 -4 -5 -5 -3 -2 4 4 6 -7 23 -24 37 -26 22 -34 25 -48 14 -14 -11 -14 -11
-3 3 11 14 8 21 -19 43 -17 14 -36 23 -41 20 -6 -4 -8 -2 -5 3 9 14 -60 66
-75 57 -6 -4 -8 -3 -5 3 9 14 -19 37 -34 27 -7 -4 -9 -3 -6 3 7 11 -69 66 -90
66 -7 0 -11 3 -8 5 5 6 -64 51 -78 52 -5 0 -5 -5 -1 -12 5 -7 3 -8 -5 -4 -7 5
-10 10 -7 14 7 7 -25 31 -42 32 -7 0 -10 -5 -6 -12 4 -7 3 -8 -5 -4 -6 4 -9
11 -6 15 10 17 -176 88 -196 75 -7 -4 -9 -3 -6 3 16 26 -224 72 -418 80 -153
6 -301 -11 -424 -49 -96 -29 -233 -97 -225 -110 4 -7 3 -8 -5 -4 -14 9 -64
-21 -56 -34 3 -5 0 -12 -6 -16 -8 -4 -9 -3 -5 4 4 7 2 12 -4 12 -20 0 -192
-179 -184 -191 4 -7 3 -9 -4 -6 -6 4 -28 -21 -52 -59 -35 -56 -39 -68 -28 -82
11 -15 11 -15 -3 -5 -13 11 -20 2 -47 -65 -36 -87 -66 -207 -59 -234 3 -11 1
-15 -5 -12 -7 5 -9 -8 -6 -39 4 -31 2 -44 -5 -40 -15 9 -2 -284 18 -392 16
-82 41 -184 81 -323 9 -29 20 -50 25 -47 5 3 6 0 4 -8 -3 -7 10 -56 30 -107
47 -122 206 -451 215 -445 4 3 7 -3 6 -12 0 -10 4 -18 11 -18 6 0 15 -4 20 -9
5 -5 3 -6 -4 -2 -7 4 -13 4 -13 1 0 -10 40 -85 46 -85 3 0 3 4 -1 9 -3 5 -1
12 4 16 6 3 8 -6 5 -21 -3 -18 -1 -23 7 -18 7 4 9 3 5 -4 -8 -13 92 -178 105
-174 6 1 8 -2 5 -7 -6 -10 108 -203 116 -196 3 3 5 -1 5 -8 0 -21 35 -67 46
-60 6 3 7 1 3 -6 -10 -15 33 -83 46 -75 6 4 8 2 4 -4 -8 -14 54 -113 67 -105
6 3 7 1 3 -5 -9 -14 58 -115 69 -104 5 4 5 2 1 -5 -9 -16 43 -95 57 -86 6 3 7
1 3 -5 -9 -15 84 -153 97 -145 5 3 7 1 3 -5 -3 -6 37 -75 90 -154 118 -174
129 -189 139 -180 3 4 6 2 5 -3 -4 -19 0 -30 21 -55 11 -14 17 -19 13 -11 -5
9 -3 12 5 7 6 -4 9 -11 6 -16 -9 -15 36 -69 54 -65 11 2 17 -4 18 -17 2 -20 1
-20 -12 -2 -8 11 -15 15 -15 11 0 -14 43 -66 51 -61 4 2 11 -1 15 -7 4 -8 3
-9 -4 -5 -17 10 -15 -9 1 -23 8 -6 18 -7 22 -3 5 4 5 1 1 -6 -9 -15 77 -135
89 -124 5 4 5 2 2 -4 -9 -15 42 -86 55 -78 7 4 8 2 4 -5 -10 -15 13 -43 27
-34 6 3 7 1 3 -6 -9 -14 62 -113 75 -105 5 3 9 2 8 -3 -3 -17 2 -29 22 -53 11
-14 17 -18 13 -10 -4 8 -3 11 1 7 5 -4 10 -14 11 -22 3 -23 97 -137 104 -126
3 6 12 0 19 -12 13 -20 13 -21 -2 -8 -10 7 -17 9 -17 3 0 -13 25 -33 32 -26 3
3 5 -3 5 -13 -1 -10 4 -17 11 -15 8 1 11 -1 8 -6 -7 -12 42 -78 55 -74 6 1 8
-1 5 -6 -7 -12 19 -47 36 -47 7 0 13 -8 13 -17 0 -22 97 -138 109 -131 5 3 6
1 2 -6 -10 -15 13 -43 27 -34 5 3 7 2 4 -4 -9 -14 52 -95 65 -86 6 3 8 1 5 -4
-4 -6 2 -22 14 -34 11 -13 17 -17 13 -9 -4 9 -3 12 2 7 5 -5 9 -12 9 -15 1
-19 27 -52 37 -46 6 4 8 3 5 -3 -3 -5 12 -32 34 -59 47 -57 76 -87 64 -65 -6
10 -4 12 4 7 6 -4 9 -12 6 -17 -8 -12 105 -150 117 -143 5 3 7 1 6 -4 -5 -15
42 -73 53 -67 5 4 9 3 8 -2 -4 -23 2 -35 17 -29 8 3 12 2 9 -4 -9 -14 144
-192 157 -184 7 5 8 2 3 -5 -8 -14 53 -84 66 -75 4 2 11 -1 15 -7 4 -8 3 -9
-4 -5 -23 14 -12 -7 25 -48 21 -22 41 -40 45 -39 5 2 7 -1 5 -6 -1 -5 27 -41
61 -81 55 -61 66 -69 80 -58 10 7 14 8 10 4 -4 -5 -2 -16 5 -25 11 -14 10 -14
-5 -2 -29 22 -21 -3 10 -32 16 -15 32 -24 36 -20 4 5 6 3 4 -3 -4 -15 52 -85
62 -79 5 3 12 0 16 -6 5 -8 3 -9 -7 -4 -18 11 25 -38 215 -242 82 -89 154
-159 159 -156 6 3 7 2 4 -4 -3 -5 22 -36 55 -69 34 -32 55 -50 47 -39 -13 18
-13 19 3 6 10 -7 15 -17 12 -22 -3 -5 6 -21 20 -36 21 -22 27 -24 40 -14 13
11 14 9 11 -11 -4 -20 13 -42 94 -121 54 -53 101 -95 104 -92 4 3 5 2 2 -2 -8
-11 109 -124 123 -118 7 3 10 0 7 -6 -9 -13 14 -41 28 -32 5 3 7 2 4 -4 -8
-13 127 -145 144 -141 8 2 13 -2 12 -8 -3 -18 195 -206 208 -198 7 4 9 3 6 -3
-8 -13 37 -56 47 -46 4 5 6 1 4 -7 -2 -8 3 -14 10 -12 8 1 11 -1 8 -6 -5 -8
19 -33 88 -92 16 -14 26 -19 21 -11 -5 10 -4 12 4 7 6 -4 9 -11 6 -16 -6 -10
103 -106 117 -102 5 1 7 -1 4 -6 -7 -12 70 -86 82 -78 5 3 18 -4 28 -17 l19
-22 -25 20 c-14 11 -7 1 14 -22 22 -23 44 -39 49 -36 6 3 7 2 4 -4 -7 -11 96
-116 106 -108 4 3 5 2 2 -1 -7 -11 117 -144 128 -137 5 3 7 1 4 -4 -8 -13 62
-105 74 -97 5 3 6 -1 3 -9 -3 -8 0 -18 7 -23 8 -5 10 -3 4 6 -5 9 -4 11 4 6 6
-4 9 -11 6 -16 -8 -14 46 -91 58 -83 6 3 7 1 3 -5 -3 -6 9 -39 28 -74 49 -89
95 -208 113 -292 15 -71 33 -327 22 -321 -5 4 -30 -135 -33 -182 0 -11 -4 -19
-7 -17 -11 6 -31 -54 -23 -68 4 -7 4 -10 -1 -6 -4 4 -24 -20 -44 -54 -20 -33
-55 -82 -78 -108 -23 -26 -39 -51 -35 -55 4 -5 2 -5 -4 -2 -15 9 -56 -22 -48
-36 4 -7 4 -9 -1 -5 -4 4 -16 3 -27 -3 -16 -9 -17 -13 -6 -27 11 -15 11 -15
-3 -4 -13 10 -27 7 -80 -17 -87 -39 -166 -55 -279 -55 -111 0 -216 17 -314 50
-39 14 -71 24 -71 24 0 -1 -17 6 -38 15 -21 9 -43 13 -49 9 -6 -4 -8 -3 -5 3
8 12 -101 66 -115 57 -7 -4 -8 -2 -4 4 10 16 -6 15 -24 0 -12 -11 -12 -10 -2
3 11 14 4 21 -48 53 -34 19 -58 32 -55 27 3 -5 1 -13 -5 -16 -6 -4 -10 -3 -9
2 4 22 -6 33 -75 81 -50 35 -81 50 -93 46 -13 -4 -14 -3 -5 3 10 7 1 19 -34
46 -39 31 -50 35 -63 24 -14 -10 -14 -10 -3 5 11 14 10 18 -10 29 -13 7 -27
12 -31 11 -5 -1 -6 2 -3 7 10 16 -12 23 -36 11 -22 -11 -22 -10 -4 4 18 15 15
21 -7 17 -5 -1 -6 3 -2 8 6 10 -33 37 -47 33 -5 -1 -7 2 -5 8 3 14 -93 91
-106 83 -5 -3 -7 -2 -4 4 9 15 -39 57 -55 47 -7 -4 -10 -3 -5 1 8 9 -40 65
-55 65 -5 0 -7 -4 -3 -9 3 -5 0 -13 -7 -17 -7 -4 -10 -4 -6 1 4 4 2 15 -5 23
-10 13 -9 15 3 8 8 -4 -3 8 -25 28 -21 19 -43 32 -49 29 -5 -3 -6 -1 -3 4 6
10 -33 46 -236 216 -37 32 -73 55 -79 51 -6 -4 -8 -3 -5 3 4 6 -11 24 -33 42
-39 31 -56 39 -45 22 3 -5 1 -12 -4 -15 -5 -4 -8 2 -6 11 3 20 -12 43 -27 43
-5 0 -6 -6 -2 -12 6 -10 5 -10 -8 -1 -8 7 -19 9 -23 5 -5 -4 -5 -1 -1 6 4 7
13 10 19 6 7 -3 -4 9 -23 25 -19 17 -41 29 -48 26 -7 -2 -10 -1 -7 4 6 11 -81
74 -102 74 -7 0 -11 3 -8 5 8 9 -65 53 -75 47 -6 -4 -9 -1 -8 6 2 6 -3 14 -11
17 -9 3 -11 0 -6 -8 5 -9 4 -11 -4 -6 -6 4 -9 11 -6 16 3 5 -8 16 -26 25 -29
15 -32 15 -52 -2 -15 -12 -18 -13 -9 -2 6 9 8 20 4 24 -4 5 0 5 8 1 8 -4 6 0
-4 8 -26 21 -42 20 -25 -1 13 -16 12 -17 -3 -4 -10 7 -15 17 -12 22 8 14 -207
113 -343 159 -151 50 -320 80 -494 87 -155 6 -320 -4 -298 -18 10 -7 5 -8 -13
-3 -43 10 -285 -47 -274 -64 2 -4 -8 -7 -23 -8 -36 -1 -122 -44 -114 -57 3 -6
1 -7 -5 -3 -16 10 -94 -32 -86 -46 4 -7 3 -8 -5 -4 -15 9 -93 -52 -85 -66 5
-7 2 -8 -5 -3 -15 9 -42 -16 -122 -108 -54 -62 -75 -98 -47 -81 7 4 8 3 4 -5
-4 -6 -11 -9 -16 -6 -11 7 -42 -43 -34 -57 4 -6 3 -8 -3 -5 -13 8 -69 -127
-95 -231 -31 -122 -31 -334 0 -482 25 -124 50 -202 63 -194 5 3 6 -2 3 -10 -8
-20 15 -88 27 -81 5 4 6 -2 2 -11 -4 -12 -3 -15 5 -10 8 4 10 2 6 -8 -6 -16
103 -236 117 -236 5 0 8 -3 7 -7 -5 -16 74 -133 84 -127 6 4 8 3 5 -3 -8 -12
29 -68 45 -68 7 0 12 -7 10 -16 -2 -16 122 -165 236 -281 42 -43 70 -65 81
-61 12 4 13 3 3 -4 -10 -8 -3 -19 28 -47 22 -20 46 -34 52 -30 6 4 8 3 5 -3
-9 -14 71 -86 85 -77 7 4 8 3 4 -4 -7 -12 50 -59 66 -54 5 1 7 -2 4 -7 -7 -11
59 -62 76 -59 7 2 12 -2 11 -9 -2 -11 128 -113 144 -113 5 0 1 5 -7 11 -13 9
-13 10 0 6 8 -2 15 -9 15 -15 0 -16 115 -93 127 -86 7 4 8 2 4 -4 -8 -14 30
-36 46 -26 6 4 8 3 5 -3 -9 -14 40 -46 55 -37 6 4 8 3 5 -3 -8 -13 50 -46 65
-37 6 4 8 3 5 -3 -9 -14 61 -56 76 -47 7 4 9 4 5 -1 -11 -11 29 -38 44 -29 6
4 8 3 5 -3 -4 -6 5 -15 19 -22 31 -14 37 -14 28 1 -4 7 -3 8 5 4 6 -4 9 -11 6
-15 -7 -12 113 -73 127 -65 6 4 8 3 5 -3 -4 -6 0 -14 9 -17 23 -9 26 -8 18 7
-4 7 -3 9 2 4 5 -5 9 -14 9 -20 0 -7 9 -11 18 -10 10 0 16 -1 13 -4 -9 -9 95
-54 107 -46 6 4 7 1 2 -7 -6 -10 -4 -12 9 -7 9 4 15 3 12 -2 -8 -12 70 -45 85
-36 8 6 10 4 4 -5 -6 -10 -4 -12 9 -7 9 4 15 3 12 -2 -7 -11 133 -73 146 -65
6 4 8 2 4 -4 -3 -6 4 -14 16 -17 13 -4 58 -22 101 -41 83 -36 102 -41 91 -22
-4 7 -3 8 5 4 6 -4 9 -11 6 -16 -7 -11 54 -32 68 -23 6 4 7 1 2 -7 -6 -10 -3
-12 13 -8 12 4 20 3 17 -2 -7 -11 133 -60 153 -54 12 4 13 3 4 -3 -15 -11 113
-58 130 -47 6 4 8 3 5 -3 -4 -6 7 -16 25 -22 38 -13 48 -14 28 -1 -10 7 -11
10 -2 10 7 0 15 -6 18 -14 3 -8 16 -17 29 -20 13 -3 31 -9 41 -13 13 -5 15 -3
10 8 -4 8 -1 6 7 -3 17 -22 65 -40 80 -31 7 3 8 2 4 -2 -8 -10 181 -77 194
-70 4 3 9 1 11 -3 6 -14 156 -62 175 -56 13 4 14 3 5 -4 -17 -12 67 -35 95
-26 14 4 15 3 4 -4 -16 -12 202 -88 220 -76 7 4 9 3 5 -4 -8 -13 25 -24 50
-16 14 4 16 3 5 -4 -10 -7 -6 -12 20 -17 19 -4 74 -23 124 -42 49 -19 98 -32
107 -29 11 2 15 0 11 -7 -4 -7 0 -8 11 -4 9 4 15 3 12 -1 -6 -11 203 -84 217
-75 5 3 7 1 3 -5 -3 -6 9 -15 31 -22 21 -7 89 -32 151 -57 93 -36 116 -42 135
-33 20 10 20 10 4 -3 -15 -13 -9 -17 65 -45 44 -17 86 -28 91 -25 6 4 7 1 2
-7 -6 -10 -4 -12 9 -7 9 4 15 3 12 -2 -8 -12 80 -42 102 -35 13 5 14 4 4 -4
-11 -7 -10 -10 3 -16 9 -3 22 -3 27 1 6 3 8 2 5 -4 -3 -5 28 -25 70 -44 101
-45 97 -43 88 -29 -5 9 -4 11 4 6 6 -4 9 -11 7 -15 -3 -4 20 -19 50 -34 61
-30 68 -32 58 -15 -5 7 -3 8 5 4 7 -5 10 -11 7 -14 -9 -9 195 -113 207 -105 5
3 7 1 4 -4 -8 -13 20 -26 35 -16 7 3 8 1 4 -6 -5 -7 3 -16 21 -24 53 -22 263
-159 263 -171 0 -6 1 -301 3 -656 4 -695 4 -693 60 -855 100 -289 328 -526
617 -639 156 -61 209 -68 553 -73 177 -3 317 -9 317 -14 0 -5 -1032 -9 -2499
-9 -2078 0 -2500 -2 -2510 -13 -6 -8 -8 -17 -4 -20 3 -4 2156 -7 4783 -7
l4776 0 105 -35 c320 -109 704 -109 1100 0 l126 35 596 0 c501 0 596 2 600 14
3 8 3 17 0 20 -4 3 -161 6 -350 6 -222 0 -343 4 -343 10 0 6 125 10 354 10
l355 0 6 23 c243 845 638 1605 1145 2202 44 52 80 97 80 100 0 3 -124 5 -276
5 -238 0 -275 2 -271 15 34 87 245 543 340 735 l122 245 233 3 232 2 0 375 0
374 41 38 c84 79 239 176 239 151 0 -7 0 -307 0 -665 0 -427 4 -653 10 -653 5
0 52 31 102 69 51 37 153 107 226 155 l132 87 0 566 0 566 66 -6 c96 -7 179
-53 280 -152 121 -120 238 -309 324 -522 19 -46 37 -83 40 -83 4 0 40 14 81
31 185 77 519 192 689 239 543 147 973 224 1525 270 204 17 542 35 665 35 l35
0 6 -110 c11 -191 56 -359 142 -530 94 -189 191 -340 349 -542 96 -124 96
-117 -7 -128 -169 -18 -611 -100 -890 -165 -1155 -267 -2396 -809 -3610 -1575
-77 -49 -183 -115 -235 -148 -129 -80 -166 -111 -196 -162 -43 -74 -43 -133 1
-276 43 -143 46 -203 15 -255 -30 -48 -85 -73 -188 -85 -288 -32 -335 -45
-393 -106 -72 -77 -86 -115 -140 -388 -160 -808 -238 -1316 -295 -1910 -24
-253 -30 -875 -10 -1120 49 -604 161 -1088 358 -1549 51 -121 104 -234 113
-244 2 -2 13 -1 24 3 20 6 19 9 -18 84 -199 394 -352 944 -411 1466 -89 804
-32 1606 205 2860 25 132 57 301 71 375 47 255 67 316 120 379 51 61 123 84
319 101 145 12 206 31 255 80 67 67 74 146 25 291 -57 168 -52 243 20 314 47
44 528 348 845 532 1374 799 2684 1273 4029 1458 l113 15 60 -65 c33 -36 64
-62 69 -59 5 3 6 -1 4 -9 -7 -16 231 -251 245 -242 6 4 9 1 8 -6 -4 -17 300
-278 442 -378 155 -109 222 -151 232 -145 7 4 8 3 4 -4 -4 -6 4 -16 16 -23 13
-6 46 -26 73 -44 149 -94 402 -224 584 -301 51 -21 95 -44 98 -50 7 -18 -88
-223 -151 -327 -72 -122 -166 -238 -301 -373 -312 -314 -681 -521 -1210 -679
-281 -84 -340 -96 -453 -90 -875 45 -1459 194 -2142 547 -635 329 -751 378
-965 414 -183 30 -440 4 -550 -54 -104 -56 -164 -143 -151 -217 20 -103 264
-268 534 -361 45 -16 82 -31 82 -34 0 -11 -123 -49 -255 -80 -115 -26 -263
-50 -640 -105 -342 -50 -594 -133 -779 -257 -127 -85 -278 -269 -316 -382 -35
-108 52 -211 189 -223 31 -3 103 0 159 6 98 10 182 7 182 -8 0 -4 -42 -35 -92
-68 -377 -246 -652 -588 -739 -917 -87 -324 4 -571 216 -593 135 -14 341 99
392 216 163 369 431 811 667 1101 93 115 341 364 436 439 232 185 442 300 720
397 l125 44 3635 0 c3613 0 3635 1 3610 20 -24 19 -47 20 -1055 20 -566 0
-1034 0 -1040 0 -18 2 280 108 645 230 407 137 553 182 914 286 143 41 260 75
261 76 6 9 103 369 154 573 262 1049 409 2024 373 2463 -15 173 -35 288 -74
426 -88 315 -243 610 -488 931 l-77 100 87 2 c53 2 126 13 186 28 108 28 291
113 286 134 -1 7 2 10 8 6 13 -8 72 34 65 46 -4 5 0 6 8 4 16 -7 148 111 144
128 -1 7 3 11 10 10 16 -3 54 47 46 60 -3 5 -1 7 4 4 14 -9 37 19 28 33 -4 6
-1 9 6 8 27 -6 209 298 193 324 -4 6 -3 8 4 4 13 -8 55 100 46 116 -4 6 -2 8
3 5 6 -4 16 13 23 40 12 42 14 44 27 27 23 -32 138 -263 182 -365 57 -135 146
-408 187 -574 49 -198 88 -439 120 -735 15 -140 28 -256 28 -257 1 -1 59 12
130 27 150 34 524 106 781 149 964 165 1088 187 1405 257 1263 278 1998 684
2437 1346 94 142 202 359 257 516 41 118 46 192 21 333 -39 223 -132 397 -300
557 -172 166 -388 275 -658 334 -139 30 -485 33 -617 5 -148 -32 -289 -85
-460 -174 -401 -210 -505 -259 -610 -287 -92 -25 -116 -28 -190 -22 -371 27
-547 178 -486 415 36 139 145 328 308 532 242 304 535 608 1411 1463 873 852
1296 1289 1674 1728 659 766 1045 1397 1193 1953 79 295 102 742 51 999 -117
581 -555 974 -1157 1037 -394 40 -819 -71 -1183 -311 -181 -119 -498 -392
-647 -557 -425 -470 -728 -1014 -1027 -1848 -73 -202 -257 -761 -257 -778 0
-9 -39 -12 -132 -12 -100 0 -149 -5 -198 -19 -74 -22 -170 -67 -217 -102 -17
-13 -34 -24 -37 -24 -3 0 4 26 15 58 85 245 -36 554 -277 712 -182 119 -465
156 -729 95 -226 -52 -475 -184 -789 -418 l-130 -97 -61 59 c-64 62 -182 143
-253 175 l-43 19 169 171 c370 376 614 723 852 1211 415 853 653 1901 799
3525 12 124 23 244 26 268 4 41 4 42 -23 42 l-28 0 -13 -152 c-24 -300 -74
-750 -122 -1118 -186 -1405 -523 -2413 -1066 -3188 -160 -227 -376 -478 -559
-647 l-95 -87 -82 22 c-103 28 -294 38 -403 21 -87 -15 -186 -46 -263 -85 -29
-15 -57 -24 -61 -19 -4 4 -17 37 -29 73 -37 106 -175 377 -249 490 -308 468
-725 807 -1236 1007 l-99 38 7 240 c4 132 9 258 11 280 2 22 7 105 10 185 18
419 80 1235 165 2145 31 334 98 1116 110 1275 6 80 12 170 15 200 2 30 7 93
10 140 3 47 8 112 10 145 6 68 19 305 37 660 16 319 16 1409 0 1670 -33 529
-69 887 -126 1255 -33 210 -89 522 -102 563 -4 13 -11 16 -27 11 -12 -3 -23
-7 -24 -8 -1 -1 13 -81 32 -177 194 -996 251 -2067 185 -3489 -6 -124 -13
-254 -15 -290 -3 -36 -12 -166 -20 -290 -9 -124 -18 -256 -21 -295 -17 -242
-81 -983 -114 -1335 -44 -470 -81 -902 -135 -1600 -2 -36 -7 -108 -10 -160 -3
-52 -8 -129 -10 -170 -14 -199 -35 -688 -35 -792 0 -64 -2 -123 -5 -130 -5
-12 -29 -8 -133 19 -693 180 -1444 58 -2047 -334 -154 -101 -258 -185 -406
-330 l-136 -133 -73 112 c-519 798 -917 1560 -1261 2416 -29 72 -56 132 -59
132 -3 0 -14 -6 -24 -13 -16 -12 -13 -25 58 -198 331 -817 746 -1610 1213
-2323 57 -87 105 -161 106 -165 1 -5 -34 -57 -79 -117 -176 -237 -298 -474
-389 -756 -20 -62 -38 -114 -39 -115 -3 -3 -130 15 -366 52 -85 13 -229 35
-320 49 -207 32 -834 128 -1085 166 -104 16 -320 49 -480 74 -159 25 -351 54
-425 65 -74 12 -171 27 -215 35 -44 7 -136 22 -204 32 -73 11 -130 24 -138 33
-17 17 -11 68 12 90 22 22 69 -4 105 -57 l30 -45 0 4269 c0 2833 -4 4291 -10
4334 -33 209 -151 432 -309 583 -132 126 -272 207 -456 264 l-90 28 -4585 3
c-3377 2 -4604 0 -4658 -8 -147 -23 -330 -100 -454 -192 -94 -69 -224 -211
-282 -307 -100 -166 -145 -333 -152 -561 -3 -79 -6 -145 -7 -147 -2 -1 -11 20
-21 47 -10 28 -22 47 -27 44 -5 -3 -6 3 -2 12 4 12 3 15 -5 10 -8 -5 -10 -1
-5 10 5 13 3 15 -7 9 -8 -5 -11 -4 -6 3 8 14 -61 165 -73 158 -5 -3 -7 2 -5
11 5 22 -150 299 -165 296 -6 -2 -7 5 -4 14 5 12 3 14 -7 8 -9 -5 -11 -4 -6 3
8 14 -38 85 -48 75 -4 -4 -4 0 -1 8 3 9 -4 26 -17 40 -13 14 -25 29 -28 34 -3
6 -9 9 -13 7 -5 -1 -6 2 -2 7 7 12 -64 113 -75 106 -4 -3 -7 3 -6 13 0 9 -5
16 -12 14 -8 -1 -11 1 -8 6 8 13 -24 53 -36 46 -6 -4 -8 -2 -5 3 6 10 -20 48
-71 105 -11 13 -39 44 -62 70 -23 26 -45 46 -48 45 -4 -1 -8 2 -9 6 -2 12 -55
66 -62 64 -3 -1 -7 3 -9 8 -6 20 -76 84 -85 78 -6 -3 -7 -2 -4 4 4 6 -11 24
-33 42 -46 36 -61 40 -34 9 17 -21 17 -21 -8 1 -15 13 -25 27 -23 32 7 11 -36
40 -48 32 -6 -3 -7 -2 -4 4 8 13 -50 56 -65 47 -6 -4 -8 -3 -5 3 9 14 -69 67
-84 57 -7 -4 -10 -3 -5 4 4 7 -30 33 -88 67 -90 53 -124 67 -111 45 3 -5 1
-10 -5 -10 -7 0 -9 7 -6 16 4 12 -12 24 -69 50 -42 19 -81 32 -87 28 -7 -5 -8
-3 -3 6 6 10 1 11 -21 6 -18 -4 -24 -3 -16 2 28 19 -344 130 -391 117 -15 -4
-18 -3 -9 3 22 15 -135 34 -308 37 -85 2 -159 1 -165 0z m682 -100 c0 -8 -4
-12 -9 -9 -5 3 -6 10 -3 15 9 13 12 11 12 -6z m53 -5 c18 -12 2 -12 -25 0 -13
6 -15 9 -5 9 8 0 22 -4 30 -9z m-1430 -164 c0 -2 -8 -10 -17 -17 -16 -13 -17
-12 -4 4 13 16 21 21 21 13z m337 -423 c-3 -10 -5 -4 -5 12 0 17 2 24 5 18 2
-7 2 -21 0 -30z m-90 -20 c-3 -10 -5 -4 -5 12 0 17 2 24 5 18 2 -7 2 -21 0
-30z m10 -95 c-3 -8 -6 -5 -6 6 -1 11 2 17 5 13 3 -3 4 -12 1 -19z m13350
-245 c46 -13 111 -34 145 -49 65 -27 151 -74 146 -79 -2 -2 -32 4 -68 13 -60
16 -406 17 -4790 17 l-4725 0 -90 -24 c-330 -86 -559 -307 -663 -641 -16 -52
-17 -656 -20 -10010 -2 -8547 0 -9966 12 -10030 38 -204 167 -412 330 -532 40
-30 40 -30 11 -24 -43 10 -166 72 -222 112 -67 48 -168 149 -218 219 -55 77
-86 140 -121 245 l-29 85 0 10005 0 10005 33 94 c76 220 224 396 424 505 104
58 195 85 368 110 14 2 2133 3 4710 2 l4685 -1 82 -22z m-10589 -528 c-3 -3
-9 2 -12 12 -6 14 -5 15 5 6 7 -7 10 -15 7 -18z m-2651 -107 c-3 -8 -6 -5 -6
6 -1 11 2 17 5 13 3 -3 4 -12 1 -19z m100 -30 c-3 -8 -6 -5 -6 6 -1 11 2 17 5
13 3 -3 4 -12 1 -19z m13016 -95 c80 -38 173 -122 211 -193 58 -107 54 195 61
-4164 7 -3926 7 -4018 -11 -4013 -19 6 -160 28 -584 92 -129 19 -305 46 -390
60 -85 13 -261 40 -390 60 -486 74 -627 96 -700 110 -41 8 -167 28 -280 45
-391 58 -596 90 -820 124 -124 20 -418 65 -655 101 -236 36 -603 93 -815 126
-232 36 -397 58 -417 54 -38 -7 -88 -46 -107 -84 -15 -28 -77 -409 -79 -477 0
-50 27 -101 70 -130 30 -20 116 -36 498 -92 l120 -18 -3 -29 c-2 -17 -32 -219
-68 -450 -84 -547 -98 -644 -93 -649 8 -8 542 -87 547 -81 6 6 49 270 113 695
17 113 34 208 37 212 8 8 402 -51 413 -61 4 -3 -8 -100 -27 -216 -18 -115 -30
-213 -26 -217 7 -6 406 -71 523 -84 56 -6 56 -6 61 22 3 16 25 157 49 314 23
157 45 289 49 293 8 9 300 -32 314 -44 8 -7 -33 -295 -130 -909 -18 -118 -32
-215 -31 -216 1 -1 99 -16 217 -34 118 -17 225 -33 237 -36 27 -7 19 -42 83
376 63 408 107 670 113 677 7 6 312 -38 877 -127 69 -11 260 -40 425 -65 165
-25 368 -56 450 -69 83 -14 186 -30 230 -36 44 -6 107 -16 141 -21 l61 -10 -5
-1877 -5 -1876 -106 -36 c-58 -20 -116 -42 -128 -48 -12 -7 -26 -12 -32 -12
-8 0 -11 436 -11 1471 l0 1470 -30 -21 -30 -21 0 -1470 0 -1469 -62 -31 c-85
-43 -234 -141 -343 -226 -591 -459 -1149 -1308 -1703 -2588 -172 -396 -396
-1015 -531 -1463 l-57 -187 -3312 -3 -3312 -2 -1 752 c-1 414 -1 756 0 761 2
10 -6 9 -39 -8 l-30 -16 0 -774 0 -775 3335 0 c1834 0 3335 -3 3335 -7 0 -5
-12 -51 -26 -103 -72 -267 -171 -694 -198 -852 l-7 -38 -3175 0 c-3539 0
-3256 -6 -3371 69 -122 79 -195 194 -214 339 -6 51 -9 3037 -7 8972 l3 8895
21 61 c50 146 160 253 309 300 32 10 958 12 4715 11 l4675 -2 68 -32z m-13026
-365 c-3 -8 -6 -5 -6 6 -1 11 2 17 5 13 3 -3 4 -12 1 -19z m-1500 -40 c-3 -8
-6 -5 -6 6 -1 11 2 17 5 13 3 -3 4 -12 1 -19z m1630 -140 c-3 -8 -6 -5 -6 6
-1 11 2 17 5 13 3 -3 4 -12 1 -19z m-80 -70 c-3 -8 -6 -5 -6 6 -1 11 2 17 5
13 3 -3 4 -12 1 -19z m72 -293 c0 -5 -4 -3 -9 5 -5 8 -9 22 -9 30 0 16 17 -16
18 -35z m21 -80 c0 -5 -5 -3 -10 5 -5 8 -10 20 -10 25 0 6 5 3 10 -5 5 -8 10
-19 10 -25z m187 -387 c-3 -8 -6 -5 -6 6 -1 11 2 17 5 13 3 -3 4 -12 1 -19z
m-1283 -1504 c3 -8 2 -12 -4 -9 -6 3 -10 10 -10 16 0 14 7 11 14 -7z m116
-284 c6 -11 8 -20 6 -20 -3 0 -10 9 -16 20 -6 11 -8 20 -6 20 3 0 10 -9 16
-20z m1744 -46 c3 -8 2 -12 -4 -9 -6 3 -10 10 -10 16 0 14 7 11 14 -7z m-1544
-379 c7 -9 8 -15 2 -15 -5 0 -12 7 -16 15 -3 8 -4 15 -2 15 2 0 9 -7 16 -15z
m170 -289 c0 -2 -8 -10 -17 -17 -16 -13 -17 -12 -4 4 13 16 21 21 21 13z
m1654 -374 c3 -5 -1 -9 -9 -9 -8 0 -12 4 -9 9 3 4 7 8 9 8 2 0 6 -4 9 -8z
m260 -398 c3 -8 2 -12 -4 -9 -6 3 -10 10 -10 16 0 14 7 11 14 -7z m184 -479
c-3 -3 -9 2 -12 12 -6 14 -5 15 5 6 7 -7 10 -15 7 -18z m191 -475 c11 -24 11
-24 -3 -6 -9 11 -16 24 -16 30 0 12 5 7 19 -24z m-81 -55 c-3 -3 -9 2 -12 12
-6 14 -5 15 5 6 7 -7 10 -15 7 -18z m165 -130 c-3 -9 -8 -14 -10 -11 -3 3 -2
9 2 15 9 16 15 13 8 -4z m-4545 -72 c-10 -2 -26 -2 -35 0 -10 3 -2 5 17 5 19
0 27 -2 18 -5z m185 0 c-7 -2 -19 -2 -25 0 -7 3 -2 5 12 5 14 0 19 -2 13 -5z
m4321 -119 c3 -8 2 -12 -4 -9 -6 3 -10 10 -10 16 0 14 7 11 14 -7z m-3424
-243 c0 -4 -6 -8 -13 -8 -8 0 -14 6 -14 13 0 7 6 10 14 7 7 -3 13 -8 13 -12z
m265 -231 c3 -6 -1 -7 -9 -4 -18 7 -21 14 -7 14 6 0 13 -4 16 -10z m2333 -165
c-3 -3 -9 2 -12 12 -6 14 -5 15 5 6 7 -7 10 -15 7 -18z m152 -259 c0 -6 -7 -1
-15 10 -8 10 -15 23 -15 28 0 6 7 1 15 -10 8 -10 15 -23 15 -28z m-2085 -75
c3 -5 2 -12 -3 -15 -5 -3 -9 1 -9 9 0 17 3 19 12 6z m-2728 -23 c-3 -8 -6 -5
-6 6 -1 11 2 17 5 13 3 -3 4 -12 1 -19z m10 -100 c-3 -8 -6 -5 -6 6 -1 11 2
17 5 13 3 -3 4 -12 1 -19z m5911 -23 c-3 -3 -9 2 -12 12 -6 14 -5 15 5 6 7 -7
10 -15 7 -18z m-5100 -290 c-3 -3 -9 2 -12 12 -6 14 -5 15 5 6 7 -7 10 -15 7
-18z m5320 -30 c-3 -3 -9 2 -12 12 -6 14 -5 15 5 6 7 -7 10 -15 7 -18z m-5234
-151 c3 -8 2 -12 -4 -9 -6 3 -10 10 -10 16 0 14 7 11 14 -7z m22129 -59 c209
-14 463 -82 636 -170 l51 -25 0 -103 c0 -565 63 -2049 96 -2293 l6 -41 -84 -6
c-147 -11 -349 -83 -453 -163 l-47 -35 -46 38 c-80 65 -710 699 -863 868 -320
354 -582 669 -851 1024 l-117 155 40 50 c93 118 270 283 404 377 205 142 480
258 726 304 96 17 302 34 369 29 25 -2 85 -6 133 -9z m-10595 -165 c262 -45
662 -112 887 -150 226 -38 559 -94 740 -125 182 -31 488 -82 680 -115 193 -32
550 -93 795 -134 817 -138 1151 -194 1635 -276 264 -44 545 -92 625 -106 80
-14 183 -32 230 -39 47 -7 288 -48 535 -90 248 -42 720 -121 1050 -176 330
-56 603 -104 607 -108 4 -4 -158 17 -360 46 -202 29 -635 92 -962 139 -327 47
-642 92 -700 100 -58 7 -117 16 -133 20 l-27 6 21 -54 c81 -205 139 -400 139
-468 0 -36 2 -39 38 -44 20 -3 260 -40 532 -81 272 -41 565 -86 650 -99 85
-14 263 -41 395 -61 132 -21 314 -49 405 -64 l165 -26 6 -91 c25 -346 136
-718 307 -1029 379 -687 1033 -1159 1800 -1299 327 -59 629 -58 949 5 l53 10
-80 40 c-198 99 -316 286 -369 585 l-17 98 -165 2 c-189 2 -336 21 -494 66
-1146 320 -1713 1595 -1181 2656 55 111 125 224 136 220 5 -2 68 -82 142 -179
449 -594 1070 -1282 1602 -1776 l119 -111 -37 -50 c-20 -27 -46 -72 -58 -98
-23 -53 -29 -147 -11 -165 13 -13 22 -9 164 69 116 64 182 84 274 85 67 1 90
-4 138 -26 119 -55 188 -135 253 -294 50 -125 58 -135 97 -128 39 8 61 -12 83
-72 23 -65 18 -137 -16 -213 -32 -74 -36 -110 -19 -205 9 -55 8 -71 -10 -131
-12 -38 -32 -89 -45 -114 l-24 -45 35 -100 c39 -110 49 -128 40 -75 -4 19 -9
58 -13 86 l-6 52 112 57 c424 217 814 592 1049 1007 l32 57 82 -40 c45 -22 81
-43 80 -47 -1 -4 -27 -64 -58 -134 -101 -234 -208 -584 -275 -898 -47 -224
-130 -742 -130 -817 0 -6 -9 -11 -19 -10 -11 0 -19 6 -18 12 1 5 -6 9 -15 9
-10 -1 -15 3 -11 9 4 6 0 8 -11 4 -11 -4 -15 -3 -11 4 4 6 0 9 -11 7 -10 -2
-19 2 -19 8 0 10 -50 54 -125 112 -16 13 -34 21 -39 17 -5 -3 -13 0 -17 6 -5
8 -3 9 7 4 10 -5 11 -5 4 3 -5 6 -16 12 -24 14 -8 2 -23 11 -33 21 -11 10 -26
16 -34 13 -8 -3 -13 -2 -10 3 8 12 -70 45 -85 36 -7 -5 -10 -4 -6 2 10 16 -88
54 -255 96 l-57 15 7 -32 c4 -17 7 -58 7 -91 0 -56 -3 -65 -53 -138 -29 -43
-50 -82 -47 -88 4 -5 1 -8 -5 -7 -7 2 -17 -6 -23 -17 -7 -11 -16 -23 -22 -27
-5 -4 -10 -15 -10 -25 -1 -10 -6 -17 -12 -16 -6 1 -23 -14 -39 -35 -15 -20
-40 -51 -56 -68 -16 -17 -28 -37 -26 -45 2 -7 -2 -13 -9 -14 -17 0 -63 -57
-56 -68 3 -6 2 -7 -4 -4 -5 3 -45 -31 -90 -76 -107 -109 -212 -207 -222 -207
-14 0 -41 -36 -34 -45 5 -4 2 -5 -4 -1 -7 4 -31 -6 -55 -22 -190 -130 -378
-157 -498 -72 -16 11 -33 19 -38 18 -6 -2 -9 0 -8 3 2 12 -36 49 -46 43 -4 -3
-7 -2 -6 3 1 4 -5 22 -15 39 -37 71 -30 167 19 264 25 52 130 195 162 224 12
10 19 24 15 30 -3 6 -2 8 2 3 11 -10 86 63 78 76 -3 6 -2 7 4 4 10 -7 52 31
52 47 0 6 7 11 15 12 21 3 117 85 111 94 -3 4 3 14 12 21 12 10 14 10 9 2 -4
-7 -5 -13 -2 -13 12 0 125 93 121 100 -2 4 2 7 8 7 13 0 199 134 194 139 -1 2
-36 -2 -76 -8 -51 -7 -69 -14 -59 -20 9 -7 7 -8 -7 -3 -35 11 -147 33 -245 47
-125 17 -742 17 -935 0 -461 -42 -754 -77 -1446 -172 -162 -22 -317 -42 -345
-45 -27 -2 -78 -9 -114 -14 -124 -20 -123 -20 -250 81 -142 114 -355 320 -467
453 -156 184 -301 424 -389 640 -28 69 -36 80 -55 77 -13 -1 -24 -4 -26 -5 -1
-2 10 -37 26 -78 160 -410 459 -795 872 -1124 68 -54 125 -99 127 -100 1 -1
-18 -33 -44 -71 -58 -86 -134 -245 -167 -349 -72 -221 -76 -463 -12 -673 33
-110 110 -256 186 -353 27 -34 33 -36 100 -43 40 -3 78 -11 85 -17 8 -7 14 -6
19 1 4 7 17 9 29 6 125 -31 1224 -23 1398 10 23 5 27 1 33 -28 3 -18 9 -42 12
-53 l6 -20 8 20 c7 15 8 13 4 -10 -6 -36 34 -112 56 -107 8 2 11 0 7 -3 -9
-10 9 -45 24 -45 6 0 5 7 -3 18 -13 15 -12 16 4 3 9 -8 15 -16 12 -19 -9 -9
37 -52 48 -45 6 3 7 2 4 -4 -7 -11 67 -115 77 -107 3 2 4 1 2 -2 -2 -3 16 -47
40 -98 24 -51 44 -100 44 -107 0 -11 2 -11 11 1 9 12 10 12 5 -3 -3 -10 4 -64
16 -120 19 -88 22 -128 20 -292 -3 -231 -5 -274 -13 -269 -4 2 -9 -17 -12 -41
-4 -25 -24 -100 -46 -167 -22 -67 -37 -126 -34 -131 3 -6 1 -7 -4 -4 -6 4 -17
-8 -24 -26 -34 -81 -97 -166 -183 -245 -142 -128 -201 -162 -373 -212 -40 -11
-73 -23 -73 -26 0 -4 7 -3 16 0 9 3 12 2 9 -5 -4 -6 -13 -8 -21 -5 -18 7 -65
-14 -58 -25 3 -5 -1 -7 -8 -4 -7 3 -24 -5 -38 -16 -14 -11 -18 -17 -10 -13 9
4 12 3 7 -2 -5 -5 -16 -9 -25 -9 -10 0 -16 -6 -14 -15 2 -8 0 -12 -4 -7 -8 8
-104 -80 -104 -96 0 -4 5 -5 12 -1 7 4 8 3 4 -5 -4 -6 -12 -8 -18 -5 -8 5 -9
1 -4 -12 6 -17 5 -17 -7 -4 -8 8 -42 98 -76 199 -308 921 -829 1753 -1551
2481 -219 221 -349 331 -548 464 -440 293 -936 453 -1469 473 l-163 6 0 955 0
955 -35 107 c-142 440 -271 990 -345 1470 -25 159 -25 179 -2 174 18 -3 112
-18 545 -84 l259 -39 80 66 80 67 -6 42 c-3 24 -17 71 -31 106 -30 75 -42 164
-27 207 6 17 9 31 6 31 -7 0 -850 121 -1919 275 -401 58 -777 112 -835 120
-58 8 -370 53 -695 100 -324 47 -855 123 -1180 170 -324 46 -651 93 -725 104
-74 11 -206 30 -293 42 l-158 23 -76 -39 c-74 -38 -76 -38 -116 -24 -27 9 -50
27 -65 49 -21 31 -23 42 -18 99 4 35 13 76 22 92 16 32 57 58 92 59 13 0 238
-36 500 -80z m-11344 24 c3 -8 2 -12 -4 -9 -6 3 -10 10 -10 16 0 14 7 11 14
-7z m5090 -40 c3 -8 2 -12 -4 -9 -6 3 -10 10 -10 16 0 14 7 11 14 -7z m17785
-165 c382 -273 649 -686 746 -1155 14 -69 24 -128 22 -130 -2 -3 -33 2 -68 11
-82 19 -150 19 -224 0 -89 -24 -150 -62 -224 -140 -143 -154 -244 -426 -276
-745 -6 -61 -8 -66 -40 -81 l-33 -16 -6 61 c-39 386 -86 1480 -86 1999 l0 318
48 -28 c26 -15 89 -57 141 -94z m-23699 81 c6 -11 8 -20 6 -20 -3 0 -10 9 -16
20 -6 11 -8 20 -6 20 3 0 10 -9 16 -20z m3118 -15 c-3 -3 -9 2 -12 12 -6 14
-5 15 5 6 7 -7 10 -15 7 -18z m146 -206 c-3 -5 -10 -7 -15 -3 -5 3 -7 10 -3
15 3 5 10 7 15 3 5 -3 7 -10 3 -15z m-2290 -175 c3 -8 2 -12 -4 -9 -6 3 -10
10 -10 16 0 14 7 11 14 -7z m2496 -118 c0 -6 -7 -1 -15 10 -8 10 -15 23 -15
28 0 6 7 1 15 -10 8 -10 15 -23 15 -28z m1893 -221 c-3 -9 -8 -14 -10 -11 -3
3 -2 9 2 15 9 16 15 13 8 -4z m202 -595 c3 -5 1 -10 -4 -10 -6 0 -11 5 -11 10
0 6 2 10 4 10 3 0 8 -4 11 -10z m-4275 -634 c0 -2 -8 -10 -17 -17 -16 -13 -17
-12 -4 4 13 16 21 21 21 13z m3365 -115 c3 -5 0 -13 -6 -17 -8 -5 -9 -3 -4 6
6 10 4 12 -9 7 -10 -4 -15 -3 -11 3 8 13 22 13 30 1z m-2604 -28 c13 -16 12
-17 -3 -4 -10 7 -18 15 -18 17 0 8 8 3 21 -13z m204 -103 c10 -11 16 -20 13
-20 -3 0 -13 9 -23 20 -10 11 -16 20 -13 20 3 0 13 -9 23 -20z m-800 -12 c5 4
5 1 1 -6 -6 -10 -11 -10 -22 -1 -8 6 -14 14 -14 16 0 3 6 0 13 -6 8 -6 18 -7
22 -3z m726 -45 c12 -16 12 -17 -2 -6 -9 7 -20 9 -24 5 -5 -4 -5 -1 -1 6 9 16
11 15 27 -5z m160 -40 c13 -16 12 -17 -3 -4 -17 13 -22 21 -14 21 2 0 10 -8
17 -17z m75 -85 l29 -33 -32 29 c-31 28 -38 36 -30 36 2 0 16 -15 33 -32z m35
-5 c13 -16 12 -17 -3 -4 -17 13 -22 21 -14 21 2 0 10 -8 17 -17z m270 -300
c13 -16 12 -17 -3 -4 -17 13 -22 21 -14 21 2 0 10 -8 17 -17z m24260 -142
c124 -104 271 -179 425 -218 96 -23 312 -24 420 -1 161 35 323 113 452 217 34
28 64 51 66 51 8 0 -137 -346 -214 -513 -227 -487 -486 -885 -779 -1199 -85
-91 -113 -102 -238 -96 -69 4 -93 10 -155 41 -88 43 -172 116 -233 202 -179
251 -181 523 -5 1005 89 245 180 516 182 543 1 15 4 27 5 27 2 0 35 -27 74
-59z m-24100 2 c13 -16 12 -17 -3 -4 -10 7 -18 15 -18 17 0 8 8 3 21 -13z
m-130 -10 c13 -16 12 -17 -3 -4 -10 7 -18 15 -18 17 0 8 8 3 21 -13z m-617
-279 c5 -14 4 -15 -9 -4 -17 14 -19 20 -6 20 5 0 12 -7 15 -16z m84 -79 c-3
-3 -9 2 -12 12 -6 14 -5 15 5 6 7 -7 10 -15 7 -18z m1373 -252 c13 -16 12 -17
-3 -4 -17 13 -22 21 -14 21 2 0 10 -8 17 -17z m1204 -563 c3 -6 -1 -7 -9 -4
-18 7 -21 14 -7 14 6 0 13 -4 16 -10z m240 0 c3 -6 -1 -7 -9 -4 -18 7 -21 14
-7 14 6 0 13 -4 16 -10z m-1829 -311 c3 -6 1 -16 -6 -22 -10 -9 -11 -9 -5 2 4
8 2 17 -6 22 -9 6 -10 9 -2 9 6 0 15 -5 19 -11z m2359 -17 c-3 -3 -11 0 -18 7
-9 10 -8 11 6 5 10 -3 15 -9 12 -12z m-2324 -49 c13 -16 12 -17 -3 -4 -17 13
-22 21 -14 21 2 0 10 -8 17 -17z m2409 13 c0 -2 -7 -7 -16 -10 -8 -3 -12 -2
-9 4 6 10 25 14 25 6z m17245 -166 c-3 -5 -12 -10 -18 -10 -7 0 -6 4 3 10 19
12 23 12 15 0z m1270 -18 c-3 -3 -11 0 -18 7 -9 10 -8 11 6 5 10 -3 15 -9 12
-12z m-20580 -172 c-3 -5 -12 -10 -18 -10 -7 0 -6 4 3 10 19 12 23 12 15 0z
m45 -36 c0 -8 -19 -13 -24 -6 -3 5 1 9 9 9 8 0 15 -2 15 -3z m36 -49 c1 -9 -4
-11 -14 -7 -10 4 -12 7 -4 10 7 2 9 9 5 15 -3 7 -2 8 2 4 5 -4 10 -14 11 -22z
m18515 -168 c-6 -8 -7 -18 -3 -22 4 -5 1 -5 -6 -1 -10 6 -10 11 -1 22 6 8 14
14 16 14 3 0 0 -6 -6 -13z m1229 -281 c0 -2 -7 -7 -16 -10 -8 -3 -12 -2 -9 4
6 10 25 14 25 6z m-1619 -169 c-10 -9 -11 -8 -5 6 3 10 9 15 12 12 3 -3 0 -11
-7 -18z m1340 -74 c13 -16 12 -17 -3 -4 -17 13 -22 21 -14 21 2 0 10 -8 17
-17z m-18610 -150 c13 -16 12 -17 -3 -4 -17 13 -22 21 -14 21 2 0 10 -8 17
-17z m-3244 -309 c-3 -3 -12 -4 -19 -1 -8 3 -5 6 6 6 11 1 17 -2 13 -5z m820
-130 c-3 -3 -12 -4 -19 -1 -8 3 -5 6 6 6 11 1 17 -2 13 -5z m23614 -27 c-10
-9 -11 -8 -5 6 3 10 9 15 12 12 3 -3 0 -11 -7 -18z m-24996 -17 c-3 -5 -12
-10 -18 -10 -7 0 -6 4 3 10 19 12 23 12 15 0z m4505 -224 c0 -2 -8 -10 -17
-17 -16 -13 -17 -12 -4 4 13 16 21 21 21 13z m-4782 -41 c-3 -3 -9 2 -12 12
-6 14 -5 15 5 6 7 -7 10 -15 7 -18z m21302 -40 c0 -2 -9 -9 -19 -15 -14 -7
-22 -7 -27 2 -4 6 -3 8 2 5 6 -3 16 -2 24 4 17 10 20 11 20 4z m-18920 -106
c0 -6 -4 -7 -10 -4 -5 3 -10 11 -10 16 0 6 5 7 10 4 6 -3 10 -11 10 -16z
m-1890 -24 c0 -5 -5 -3 -10 5 -5 8 -10 20 -10 25 0 6 5 3 10 -5 5 -8 10 -19
10 -25z m1841 18 c13 -16 12 -17 -3 -4 -10 7 -18 15 -18 17 0 8 8 3 21 -13z
m-1706 -59 c9 -15 12 -23 6 -20 -11 7 -35 46 -28 46 3 0 12 -12 22 -26z
m23045 -60 c0 -8 -19 -13 -24 -6 -3 5 1 9 9 9 8 0 15 -2 15 -3z m8 -49 c-3 -3
-9 2 -12 12 -6 14 -5 15 5 6 7 -7 10 -15 7 -18z m2027 6 c3 -5 2 -12 -3 -15
-5 -3 -9 1 -9 9 0 17 3 19 12 6z m-3060 -150 c3 -5 2 -12 -3 -15 -5 -3 -9 1
-9 9 0 17 3 19 12 6z m-22838 -133 c-2 -18 -4 -4 -4 32 0 36 2 50 4 33 2 -18
2 -48 0 -65z m25834 39 c-10 -9 -11 -8 -5 6 3 10 9 15 12 12 3 -3 0 -11 -7
-18z m-78 -42 c-7 -21 -12 -19 -10 4 0 11 5 18 9 15 4 -3 5 -11 1 -19z m-38
-74 c3 -5 2 -12 -3 -15 -5 -3 -9 1 -9 9 0 17 3 19 12 6z m59 -39 c3 -5 -1 -9
-9 -9 -8 0 -12 4 -9 9 3 4 7 8 9 8 2 0 6 -4 9 -8z m-3107 -34 c-3 -8 -6 -5 -6
6 -1 11 2 17 5 13 3 -3 4 -12 1 -19z m-950 -45 c-3 -10 -5 -2 -5 17 0 19 2 27
5 18 2 -10 2 -26 0 -35z m-20442 -3 c10 -11 16 -20 13 -20 -3 0 -13 9 -23 20
-10 11 -16 20 -13 20 3 0 13 -9 23 -20z m22272 14 c-3 -3 -12 -4 -19 -1 -8 3
-5 6 6 6 11 1 17 -2 13 -5z m654 -11 c13 -16 12 -17 -3 -4 -17 13 -22 21 -14
21 2 0 10 -8 17 -17z m-22856 -73 c10 -11 16 -20 13 -20 -3 0 -13 9 -23 20
-10 11 -16 20 -13 20 3 0 13 -9 23 -20z m22910 2 c-3 -3 -11 0 -18 7 -9 10 -8
11 6 5 10 -3 15 -9 12 -12z m1425 15 c0 -2 -10 -12 -22 -23 l-23 -19 19 23
c18 21 26 27 26 19z m-160 -92 c-24 -25 -46 -45 -49 -45 -3 0 15 20 39 45 24
25 46 45 49 45 3 0 -15 -20 -39 -45z m-21985 -5 c3 -6 -1 -7 -9 -4 -18 7 -21
14 -7 14 6 0 13 -4 16 -10z m22046 -13 c-6 -8 -7 -18 -3 -22 4 -5 1 -5 -6 -1
-10 6 -10 11 -1 22 6 8 14 14 16 14 3 0 0 -6 -6 -13z m-221 -111 c0 -2 -8 -10
-17 -17 -16 -13 -17 -12 -4 4 13 16 21 21 21 13z m90 -11 c0 -2 -10 -9 -22
-15 -22 -11 -22 -10 -4 4 21 17 26 19 26 11z m-25260 -165 c6 -11 8 -20 6 -20
-3 0 -10 9 -16 20 -6 11 -8 20 -6 20 3 0 10 -9 16 -20z m24905 10 c-3 -5 -12
-10 -18 -10 -7 0 -6 4 3 10 19 12 23 12 15 0z m-318 -96 c-3 -3 -12 -4 -19 -1
-8 3 -5 6 6 6 11 1 17 -2 13 -5z m-80 -10 c-3 -3 -12 -4 -19 -1 -8 3 -5 6 6 6
11 1 17 -2 13 -5z m303 2 c0 -2 -9 -6 -20 -9 -11 -3 -18 -1 -14 4 5 9 34 13
34 5z m-23189 -23 c13 -16 12 -17 -3 -4 -17 13 -22 21 -14 21 2 0 10 -8 17
-17z m22526 -15 c-3 -7 -5 -2 -5 12 0 14 2 19 5 13 2 -7 2 -19 0 -25z m-22466
-25 c13 -16 12 -17 -3 -4 -17 13 -22 21 -14 21 2 0 10 -8 17 -17z m74 -51 c-3
-3 -11 0 -18 7 -9 10 -8 11 6 5 10 -3 15 -9 12 -12z m21648 -57 c-3 -9 -8 -14
-10 -11 -3 3 -2 9 2 15 9 16 15 13 8 -4z m-21428 -83 c-3 -3 -11 0 -18 7 -9
10 -8 11 6 5 10 -3 15 -9 12 -12z m21605 -16 c0 -2 -8 -10 -17 -17 -16 -13
-17 -12 -4 4 13 16 21 21 21 13z m-2201 -72 c14 -12 -19 -1 -35 12 -18 14 -18
14 6 3 14 -6 27 -13 29 -15z m714 -111 c-7 -2 -19 -2 -25 0 -7 3 -2 5 12 5 14
0 19 -2 13 -5z m292 -91 c-3 -3 -11 0 -18 7 -9 10 -8 11 6 5 10 -3 15 -9 12
-12z m941 -67 c-1 -8 -5 -17 -8 -21 -5 -4 -4 16 1 34 3 9 9 -1 7 -13z m-909
-17 c-3 -8 -6 -5 -6 6 -1 11 2 17 5 13 3 -3 4 -12 1 -19z m-1822 -88 c-3 -5
-14 -10 -23 -9 -14 0 -13 2 3 9 27 11 27 11 20 0z m-36 -23 c-2 -1 -13 -9 -24
-17 -19 -14 -19 -14 -6 3 7 9 18 17 24 17 6 0 8 -1 6 -3z m1009 -54 c-9 -2
-19 -12 -21 -21 -3 -12 -5 -10 -6 6 -1 17 4 22 22 21 15 -1 17 -3 5 -6z
m-18153 -13 c3 -6 -1 -7 -9 -4 -18 7 -21 14 -7 14 6 0 13 -4 16 -10z m17110
-28 c-3 -3 -11 0 -18 7 -9 10 -8 11 6 5 10 -3 15 -9 12 -12z m442 -39 c-3 -10
-5 -2 -5 17 0 19 2 27 5 18 2 -10 2 -26 0 -35z m334 30 c13 -16 12 -17 -3 -4
-10 7 -18 15 -18 17 0 8 8 3 21 -13z m672 -10 c-7 -2 -19 -2 -25 0 -7 3 -2 5
12 5 14 0 19 -2 13 -5z m160 0 c-7 -2 -19 -2 -25 0 -7 3 -2 5 12 5 14 0 19 -2
13 -5z m-1156 -120 c-3 -10 -5 -2 -5 17 0 19 2 27 5 18 2 -10 2 -26 0 -35z
m-17002 -33 c3 -6 -1 -7 -9 -4 -18 7 -21 14 -7 14 6 0 13 -4 16 -10z m17002
-122 c-3 -7 -5 -2 -5 12 0 14 2 19 5 13 2 -7 2 -19 0 -25z m-16917 -3 c14 -8
21 -14 15 -14 -5 0 -21 6 -35 14 -14 8 -20 14 -15 14 6 0 21 -6 35 -14z
m17471 -32 c13 -16 12 -17 -3 -4 -17 13 -22 21 -14 21 2 0 10 -8 17 -17z
m-554 -85 c-3 -8 -6 -5 -6 6 -1 11 2 17 5 13 3 -3 4 -12 1 -19z m1258 -40 c-9
-6 -19 -7 -22 -4 -4 3 -1 6 6 6 7 0 9 4 6 10 -4 6 1 7 11 3 15 -6 15 -7 -1
-15z m-6375 -313 l0 -305 -185 0 c-102 0 -185 2 -185 5 0 30 348 605 366 605
2 0 4 -137 4 -305z m5127 283 c-3 -8 -6 -5 -6 6 -1 11 2 17 5 13 3 -3 4 -12 1
-19z m1278 -6 c-3 -3 -11 0 -18 7 -9 10 -8 11 6 5 10 -3 15 -9 12 -12z
m-20528 -67 c0 -8 -4 -12 -9 -9 -5 3 -6 10 -3 15 9 13 12 11 12 -6z m20188
-113 c-3 -3 -11 0 -18 7 -9 10 -8 11 6 5 10 -3 15 -9 12 -12z m-18830 -442 c3
-6 -1 -7 -9 -4 -18 7 -21 14 -7 14 6 0 13 -4 16 -10z m18230 -40 c10 -11 16
-20 13 -20 -3 0 -13 9 -23 20 -10 11 -16 20 -13 20 3 0 13 -9 23 -20z m-17154
-333 c-8 -8 -14 -7 -23 2 -11 10 -9 11 6 5 15 -6 17 -4 11 6 -6 9 -4 11 4 5 9
-5 10 -10 2 -18z m219 -87 c8 -5 11 -10 5 -10 -5 0 -17 5 -25 10 -8 5 -10 10
-5 10 6 0 17 -5 25 -10z m185 -78 c-3 -3 -11 0 -18 7 -9 10 -8 11 6 5 10 -3
15 -9 12 -12z m525 -218 c0 -8 -19 -13 -24 -6 -3 5 1 9 9 9 8 0 15 -2 15 -3z
m441 -251 c13 -16 12 -17 -3 -4 -17 13 -22 21 -14 21 2 0 10 -8 17 -17z m7764
-1133 c177 -39 474 -58 670 -42 66 5 121 8 123 7 3 -3 -104 -242 -189 -422
-28 -59 -59 -131 -70 -159 l-20 -51 -102 -22 c-358 -74 -579 -45 -646 86 -25
49 -13 104 110 496 33 106 43 127 57 123 9 -3 39 -10 67 -16z m5600 -1205 c61
-8 152 -14 204 -15 52 0 92 -3 88 -6 -6 -7 -1198 -7 -1204 0 -5 4 151 24 287
36 129 12 490 3 625 -15z m-7241 -11 c9 -3 16 -9 16 -13 0 -11 -2343 -2 -2354
9 -11 11 2310 15 2338 4z m1766 -4 c0 -6 -49 -10 -126 -10 -81 0 -123 4 -119
10 4 6 57 10 126 10 73 0 119 -4 119 -10z m6598 -7 c-10 -2 -28 -2 -40 0 -13
2 -5 4 17 4 22 1 32 -1 23 -4z"/>
<path d="M13090 29245 l0 -445 125 0 125 0 0 445 0 445 -125 0 -125 0 0 -445z"/>
<path d="M20680 29310 l0 -220 510 0 510 0 0 220 0 220 -510 0 -510 0 0 -220z"/>
<path d="M12700 29090 l-1 -290 126 0 125 0 0 290 0 290 -124 0 -125 0 -1
-290z"/>
<path d="M12320 28995 l0 -195 120 0 120 0 0 195 0 195 -120 0 -120 0 0 -195z"/>
<path d="M12337 28393 c-9 -8 -9 -8843 -1 -8843 3 0 19 9 35 21 l29 20 0 4375
0 4374 4658 -2 4657 -3 3 -1517 c1 -835 4 -1518 7 -1518 3 0 17 7 30 16 l25
16 0 1534 0 1534 -4718 0 c-2595 0 -4722 -3 -4725 -7z"/>
<path d="M16789 27310 c-355 -20 -691 -100 -1000 -240 -556 -251 -997 -690
-1217 -1210 -65 -154 -103 -283 -138 -465 -16 -78 -19 -179 -23 -770 l-6 -680
-70 -5 c-87 -7 -114 -21 -149 -73 l-27 -42 4 -1340 c3 -1322 3 -1342 24 -1465
22 -122 58 -279 68 -288 2 -3 53 25 112 61 60 36 489 299 956 584 466 285 925
565 1020 622 140 85 564 346 750 462 152 94 1356 831 1582 967 66 40 185 114
265 163 155 97 512 315 545 333 11 6 57 34 103 61 l82 50 0 566 c0 601 -5 703
-46 889 -145 654 -602 1214 -1261 1544 -264 132 -595 228 -898 260 -181 19
-490 26 -676 16z m490 -201 c531 -58 1070 -286 1376 -580 356 -344 589 -792
661 -1273 16 -111 13 -151 -5 -75 -6 24 -31 107 -57 184 -240 732 -878 1307
-1644 1480 -210 47 -303 56 -618 55 -380 0 -535 -22 -807 -110 -724 -235
-1281 -809 -1486 -1534 -66 -234 -72 -291 -78 -826 l-6 -485 -25 0 -25 0 0
565 c0 599 4 655 51 880 118 567 468 1075 966 1406 124 82 303 176 408 214
149 55 372 96 600 110 161 10 555 4 689 -11z m226 -672 c175 -37 328 -90 471
-162 378 -193 634 -476 755 -834 58 -170 59 -187 59 -872 l0 -629 -1752 3
-1753 2 0 620 c0 660 1 668 51 842 148 510 643 919 1249 1032 158 29 151 29
490 26 287 -2 319 -4 430 -28z m780 -2697 c-3 -5 -19 -10 -34 -10 -15 0 -113
-13 -217 -29 -212 -33 -474 -73 -829 -126 -132 -20 -312 -47 -400 -60 -88 -14
-281 -43 -430 -65 -413 -62 -652 -98 -860 -130 -104 -16 -226 -34 -270 -40
-44 -6 -87 -13 -96 -16 -11 -3 -19 7 -27 34 -17 56 -66 125 -112 157 -57 40
-106 54 -186 55 -59 0 -81 -5 -132 -30 -112 -56 -167 -145 -166 -270 0 -100
28 -163 102 -231 l55 -50 -47 -217 c-47 -215 -116 -530 -201 -917 -24 -110
-61 -278 -82 -372 -20 -95 -41 -173 -45 -173 -12 0 -10 2074 2 2145 27 163
149 297 310 341 58 16 3675 20 3665 4z"/>
<path d="M28264 18769 c-39 -11 -62 -35 -47 -50 8 -8 17 -8 31 0 26 14 35 14
27 1 -3 -6 -3 -19 0 -31 11 -32 59 -22 63 14 4 33 6 33 61 2 50 -29 78 -20 47
14 -35 38 -130 64 -182 50z"/>
<path d="M28620 18713 c-38 -20 -57 -60 -24 -51 11 3 26 9 34 12 10 4 19 -2
25 -16 14 -32 66 -32 80 0 13 29 16 28 86 -10 32 -18 62 -29 66 -25 26 27 -98
98 -180 104 -37 3 -62 -1 -87 -14z"/>
<path d="M28451 18151 c-33 -9 -51 -38 -31 -51 51 -33 189 -40 282 -14 32 9
58 21 58 25 0 5 -15 18 -32 29 -40 24 -107 26 -149 5 -16 -9 -34 -13 -40 -10
-21 14 -65 21 -88 16z"/>
<path d="M28455 18011 c-14 -16 -12 -19 24 -39 51 -29 127 -29 181 -2 35 18
38 23 28 39 -11 18 -12 18 -52 0 -52 -24 -83 -24 -128 0 -35 17 -38 17 -53 2z"/>
<path d="M32535 12183 c-87 -11 -226 -35 -270 -46 l-50 -13 -7 -55 c-4 -30
-17 -126 -28 -214 -48 -367 -184 -918 -370 -1500 -179 -558 -201 -634 -190
-654 9 -17 17 -20 48 -16 20 3 165 21 322 40 704 85 1081 193 1360 390 264
187 454 393 562 610 365 731 -253 1474 -1215 1464 -73 -1 -145 -4 -162 -6z"/>
<path d="M31757 8883 c-11 -10 14 -33 36 -33 19 0 20 1 2 20 -19 21 -28 24
-38 13z"/>
<path d="M32150 8870 c14 -11 36 -19 50 -19 23 0 23 1 -10 19 -47 26 -73 26
-40 0z"/>
<path d="M32437 8884 c-3 -3 -3 -12 0 -20 4 -12 448 -14 3055 -14 2899 0 3049
1 3046 18 -3 16 -157 17 -3049 20 -1675 1 -3048 -1 -3052 -4z"/>
<path d="M31244 8865 c11 -8 24 -15 30 -15 5 0 1 7 -10 15 -10 8 -23 14 -29
14 -5 0 -1 -6 9 -14z"/>
<path d="M22204 2809 c-5 -8 -3 -9 6 -4 9 5 11 4 6 -4 -4 -6 -11 -9 -16 -6
-14 8 -91 -46 -83 -58 3 -6 1 -7 -5 -3 -7 4 -31 -6 -54 -22 -24 -16 -59 -37
-78 -47 -19 -9 -43 -27 -53 -39 -10 -11 -16 -15 -12 -8 4 8 -13 3 -41 -11
-148 -75 -290 -103 -368 -73 -46 18 -116 85 -116 111 0 8 -4 15 -10 15 -5 0
-7 7 -4 15 11 27 -4 16 -35 -27 -17 -22 -28 -46 -24 -51 3 -6 2 -7 -4 -4 -15
9 -73 -67 -69 -90 3 -12 -1 -20 -10 -20 -11 0 -11 4 -2 16 7 9 0 5 -15 -9 -15
-13 -25 -30 -22 -38 2 -7 1 -11 -4 -8 -9 6 -29 -12 -30 -26 -1 -5 -4 -8 -8 -9
-5 0 -66 -58 -138 -128 -71 -70 -151 -142 -177 -160 -26 -19 -45 -38 -42 -43
3 -5 2 -8 -3 -7 -13 3 -43 -13 -38 -20 2 -4 -2 -8 -9 -8 -25 0 -74 -45 -71
-65 2 -10 0 -16 -6 -13 -5 4 -7 11 -4 16 4 5 2 9 -4 9 -10 0 -26 -19 -26 -32
0 -3 -4 -10 -9 -15 -5 -5 -6 -3 -2 5 11 19 -2 14 -40 -14 -18 -14 -32 -30 -29
-34 3 -5 0 -12 -6 -16 -8 -5 -9 -3 -4 6 5 8 3 11 -6 8 -8 -3 -14 -10 -14 -16
0 -5 -4 -14 -9 -19 -5 -5 -6 -3 -2 5 4 6 4 12 1 12 -14 0 -180 -143 -177 -152
1 -5 -1 -7 -6 -4 -12 7 -84 -68 -75 -79 5 -4 3 -5 -4 -1 -13 7 -45 -32 -37
-46 3 -5 0 -7 -6 -6 -20 5 -60 -81 -60 -127 0 -27 5 -42 13 -42 6 0 46 -6 87
-12 137 -22 431 -9 555 25 100 27 192 60 203 73 9 11 11 11 6 2 -5 -11 -3 -13
10 -8 10 4 20 7 22 7 3 0 2 4 -1 10 -3 5 0 7 8 4 7 -2 47 11 88 31 41 19 66
33 56 30 -11 -3 -16 -1 -12 6 4 6 14 8 22 5 13 -5 133 48 133 59 0 3 -9 1 -19
-5 -11 -5 -22 -6 -25 -2 -5 8 8 12 47 13 10 0 15 5 11 11 -4 6 -3 8 4 4 9 -6
82 30 82 41 0 2 -5 1 -12 -3 -7 -4 -8 -3 -4 5 4 6 11 9 16 6 14 -8 91 46 83
58 -3 5 -1 7 5 3 13 -8 173 111 169 126 -1 6 6 12 16 13 26 5 48 25 40 38 -3
5 -1 7 4 4 6 -4 17 1 25 11 18 20 43 156 32 173 -4 7 -3 9 3 6 5 -3 17 18 26
47 10 30 24 59 32 66 8 7 13 15 11 19 -7 11 53 12 74 1 10 -6 27 -23 36 -40
10 -16 22 -26 27 -23 6 3 8 2 4 -3 -3 -5 2 -42 12 -81 l17 -72 72 36 c83 41
80 36 108 218 21 139 24 339 5 423 -14 64 -24 81 -37 61z m-324 -219 c-14 -11
-29 -20 -35 -20 -5 0 4 9 20 20 38 25 48 25 15 0z m-903 -378 c-15 -16 -24
-32 -20 -37 5 -4 2 -5 -5 -1 -11 6 -7 15 14 37 15 16 30 29 33 29 2 0 -7 -13
-22 -28z m763 -216 c0 -2 -8 -10 -17 -17 -16 -13 -17 -12 -4 4 13 16 21 21 21
13z m-1270 -170 c0 -2 -8 -10 -17 -17 -16 -13 -17 -12 -4 4 13 16 21 21 21 13z
m-84 -71 c-1 -8 -7 -20 -13 -26 -13 -13 -13 7 0 29 11 16 16 15 13 -3z"/>
</g>
</svg>
